<?xml version="1.0" encoding="utf-8"?>
<!-- Generator: Adobe Illustrator 21.0.0, SVG Export Plug-In . SVG Version: 6.00 Build 0)  -->
<svg version="1.1" xmlns="http://www.w3.org/2000/svg" xmlns:xlink="http://www.w3.org/1999/xlink" x="0px" y="0px"
	 viewBox="0 0 841.9 595.3" style="enable-background:new 0 0 841.9 595.3;" xml:space="preserve">
<style type="text/css">
	.st0{fill:#333333;}
	.st1{display:none;}
	.st2{font-family:'Lavanderia-Regular';}
	.st3{font-size:153.4516px;}
</style>
<g id="Layer_4">
	<path class="st0" d="M400.5,393.1c0,0,164.3,96.7,259.2-80.7C575.1,447.5,440,403.7,400.5,393.1z"/>
</g>
<g id="Layer_4_copy">
	<path class="st0" d="M400.5,393.1c0,0,164.3,96.7,259.2-80.7C575.1,447.5,440,403.7,400.5,393.1z"/>
</g>
<g id="Layer_5">
	<path class="st0" d="M482.1,408.1c-13.2-90.1-89.6-76.3-70.1-11.9c0,0,4.9,3.4,7.3,3.9c-34.4-54.8,44.8-86.4,53.6,8.1
		C476.9,411.4,482.1,408.1,482.1,408.1z"/>
</g>
<g id="Layer_6">
	<path class="st0" d="M440.7,404.7c0,0-6.9-24-5.2-26.8c1.8-2.8,5.9,21.9,14.5,26.8C458.7,409.5,440.7,404.7,440.7,404.7z"/>
</g>
<g id="Layer_1">
	<text transform="matrix(0.9806 -0.196 0.196 0.9806 48.0756 234.6774)" class="st1 st2 st3">Weblicious</text>
	<path class="st0" d="M362.5,193.3c-38.8,3.2-52.8,73.7-63.9,169.9c-2.8-2.7-5.3-19-7.2-41.6c-2.4-28.3-2.4-68-0.7-106.5l-7.2-1.1
		c-14.7,37.7-26,125.8-28.7,150.2c-1.8-2.9-2.9-14.5-4.1-28.3c-0.3-3.8-0.5-8.1-0.9-12.4l-0.6-6.7c-0.5-6.3-1.3-12.8-2.3-19.2
		c-11.2-114.4-100.1-70.4-102.1,10.5c-1.6,62.8,49.9,74.2,69.1,22c20.1-54.7-14.2-80.4-31.7-57.6c-7.8,10.2-0.8,18.1,6.3,16.4
		c12.3-2.9,7.9-19.8-3-13.8c9-18.1,32.4-8.9,30.9,28.9c-3.2,80.8-78.6,76.5-63.9-9.2c11.9-69.1,58.4-86.3,80.8-24.9
		c2.9,10.2,4.4,22.4,5.7,34.9l1.9,22.8c1.1,13.5,2.3,26.4,4.4,36.2c0,0.3,0,0.5,0,0.8l0.1-0.5c1,4.6,2.3,8.6,3.8,11.6l7.3,0.8
		c3.5-26.3,14.5-111,26.4-146.6c-1,18.1-2.6,66.9,0.5,104.2c1.5,17.9,4.1,32.5,8.3,39l9.1,0.2C313.7,273,326,203.9,361,201
		c7.3-0.6,15,3,18.8,8.2c2.1-3.7,4.6-5.5,7.1-6.4C380.7,195.5,372.3,192.5,362.5,193.3z"/>
	<path class="st0" d="M370.6,291.9c0.8-0.1,2.8,0.8,2.9,1.3c-3.9,14.5-11,37.6-25.1,38.7c-11.8,1-17.3-10-18.4-23.6
		c-1.7-20.8,6.8-47.8,21.5-49.1c5.8-0.5,9,3.2,9.5,8.8c1,12.1-11.8,27-23.2,30.1c-0.2,3.1-0.3,6,0,8.9c0.9,10.2,4.4,18.1,12.1,17.5
		C359.7,323.8,366.4,306.6,370.6,291.9z M337.8,294.2c12.3-7,17.3-18.2,16.7-25.4c-0.3-3.7-1.5-5.4-3.5-5.2
		C344.4,264.1,339.3,279.7,337.8,294.2z"/>
	<path class="st0" d="M422.7,288.9l0,0.2c-3.1,10.7-9.3,18.3-16.9,20.8c-3.6,10.3-9.4,18-17.5,18.7c-10.9,0.9-15.8-11.9-17.2-29.5
		c-2.3-28.1,4.1-68.4,10.5-86.2c1.7-4.9,5.1-7.4,8.4-7.6c4.1-0.3,8.1,2.7,8.6,8.5c1.1,12.8-5.2,27.8-18.6,44.4l-0.8,7.3
		c3-5.2,7.4-8.8,13.4-9.3c10.4-0.9,15.8,10.4,17,24.1c0.7,8-0.1,17-2.2,24.8c5.4-2.3,9.7-7.6,12.6-17.4
		C420.6,287.7,422.7,288.2,422.7,288.9z M398.8,310.8c-10.3-0.1-17.1-6-20.7-13.8c0.1,2.6,0.1,5.1,0.3,7.4c1,12.2,4,20.3,9.5,19.8
		C392.8,323.8,396.5,318.4,398.8,310.8z M378.5,284.8c0.9,11.3,7.3,22.5,21.5,21.9c1.7-7.5,2.3-16.4,1.7-24.2
		c-1-12.1-4.9-22.1-12.1-21.5C381.9,261.7,377.5,273.5,378.5,284.8z M391.3,210.9c-3.4,0.3-7.8,19-10.6,41.1
		c8-11.6,13.8-24.9,12.7-37.7C393.2,211.9,392.5,210.8,391.3,210.9z"/>
	<path class="st0" d="M449.2,285.3c0.8-0.1,2.7,0.5,2.7,1.3c-7.1,25.5-12.4,37.7-20.8,38.4c-7,0.6-9.8-8.7-11.1-23.9
		c-0.6-11-0.1-24.9,1.4-40.5c3.5-37.4,10.9-59,18.7-59.6c4.7-0.4,6.4,4.4,6.9,10.7c1.8,21.9-8.9,53.6-19.8,72.9
		c-0.3,8-0.3,15.3,0.2,20.9c0.7,8.9,2.8,12.7,5.7,12.5C438.4,317.7,443.4,305.5,449.2,285.3z M441,206.9c-5,0.4-11.1,38.7-13.1,69.9
		c5.1-12.1,17.2-43.3,15.3-65.2C443,209.3,442.8,206.7,441,206.9z"/>
	<path class="st0" d="M461.1,251.2c-2.9,23.8-5.9,45.9-4.8,58.5c0.4,4.6,1.7,6.2,3.3,6c4.7-0.4,9.5-12,15.3-32.5
		c0.8-0.1,2.8,0.5,2.9,1.3c-6.2,21.8-10.3,37.2-20.1,38c-5.5,0.5-8.3-5.9-9.1-15.3c-1.3-15.4,2.6-39.5,4.5-55.3L461.1,251.2z
		 M453.8,235.7c-0.3-3.4,1.5-7.7,5.6-8c3.2-0.3,4.8,2.1,5,4.8c0.3,3.5-1.8,7.4-5.7,7.7C455.6,240.5,454.1,238.3,453.8,235.7z"/>
	<path class="st0" d="M496.6,279.5c3.3-6.6,4.7-13.8,4.3-18.8c-0.4-4.9-2.4-8.1-5.6-7.9c-8.6,0.7-14.5,23.5-13.1,40.8
		c0.9,10.9,4.7,19.3,12.8,18.8c8.8-1,14.6-11.7,20.8-32.7c0.8-0.1,3.1,0.8,3.2,1.3l-1.2,3.6c-5.8,18.5-12.7,34.2-26,35.3
		c-10.6,0.9-15.8-9.9-16.9-23.7c-1.7-20.6,6.2-47.6,20.4-48.8c7.2-0.6,10.9,5.7,11.6,14c0.5,6.6-0.8,14.4-3.8,21.1L496.6,279.5z"/>
	<path class="st0" d="M527.8,245.7c-2.9,23.8-5.9,45.9-4.8,58.5c0.4,4.6,1.7,6.2,3.3,6c4.7-0.4,9.5-12,15.3-32.5
		c0.8-0.1,2.8,0.5,2.9,1.3c-6.2,21.8-10.3,37.2-20.1,38c-5.5,0.5-8.3-5.9-9.1-15.3c-1.3-15.4,2.6-39.5,4.5-55.3L527.8,245.7z
		 M520.5,230.1c-0.3-3.4,1.5-7.7,5.6-8c3.2-0.3,4.8,2.1,5,4.8c0.3,3.5-1.8,7.4-5.7,7.7C522.3,234.9,520.7,232.7,520.5,230.1z"/>
	<path class="st0" d="M593.2,274.9c-3,10.4-7.9,17.3-15.3,20.1c-4.1,10.3-11.2,18.8-19.2,19.5c-17.6,1.5-20.6-23.8-15.3-50.6
		l4.8,0.8c1.2-11.5,7.1-22,17.8-22.9c16.2-1.4,19.6,26.8,13.1,48.6c4.8-2.9,8.3-7.5,11.1-16.8C591.1,273.5,593.5,273.9,593.2,274.9z
		 M569.5,296.6c-13.2,0-19.5-11-20.9-23.2c-1.2,13-2.3,37.6,9.8,36.6C563.3,309.5,567.3,304,569.5,296.6z M570.8,292.1
		c6.3-20.7,5.3-47.3-4.6-46.4C549.2,247.1,546.6,294.2,570.8,292.1z"/>
	<path class="st0" d="M602.3,239.5c-0.7,7.8-6.4,43-5.2,58c0.4,4.9,2,6.8,3.9,6.6c3.8-0.3,11.2-15.7,12.9-33.6
		c1-11.6,2.7-23,3.9-32.4l8-0.7c-2.8,23.8-5.9,45.9-4.8,58.5c0.4,4.6,1.7,6.2,3.4,6c4.6-0.4,9.3-12,15.3-32.5
		c0.6-0.1,2.8,0.5,2.9,1.3c-6.3,21.8-10.3,37.2-20.1,38c-5.7,0.5-8-5.8-8.8-15.4c-0.1-0.9,0-2-0.1-3.1c-3.3,11.5-8.7,20-14.6,20.5
		c-6,0.5-8.6-5.6-9.4-15.1c-1.5-18.5,3.8-48.5,4.6-55.5L602.3,239.5z"/>
	<path class="st0" d="M644.2,293.1c0.4,4.3,3.3,7.6,7.7,7.2c5.7-0.5,9.1-7.2,8.5-14.6c-0.9-11-7.7-22.1-11.9-37.5
		c-1.8,8.2-4,16.4-5.8,22.5c0,0-2.8-0.2-2.9-1.3c1.9-7.1,4.9-17.3,7.1-27.1c-0.9-3.3-1.5-7-2-12.9c-0.5-5.5,0.6-10.8,1.5-15.2
		l6.5,0.7c0,8.8-0.5,15.6-2,22.3c2.2,15.4,16.2,32.2,17.5,47c0.1,1.2,0.5,20.9-16.8,22.3c-6.7,0.6-14.3-3-14.5-12.7L644.2,293.1z"/>
</g>
</svg>
