<?xml version="1.0" encoding="utf-8"?>
<!-- Generator: Adobe Illustrator 21.0.0, SVG Export Plug-In . SVG Version: 6.00 Build 0)  -->
<svg version="1.1" id="Layer_1" xmlns="http://www.w3.org/2000/svg" xmlns:xlink="http://www.w3.org/1999/xlink" x="0px" y="0px"
	 viewBox="0 0 433.5 161.2" style="enable-background:new 0 0 433.5 161.2;" xml:space="preserve">
<style type="text/css">
	.st0{stroke:#333333;}
	.st1{stroke:#333333;stroke-miterlimit:10;}
</style>
<g>
	<path class="st0" d="M59.2,59h1.3l7.2,16.6L75,59h1.3l-7.9,18.1l10.4,23.7L97,59h1.3l-18.8,43.3h-1.3L67.8,78.6l-10.3,23.7h-1.3
		L37.3,59h1.3l18.2,41.8l10.3-23.7L59.2,59z"/>
	<path class="st0" d="M169.3,91.3c0,1.5-0.3,2.9-0.9,4.2c-0.6,1.3-1.3,2.5-2.3,3.5c-1,1-2.1,1.8-3.4,2.4c-1.3,0.6-2.7,0.9-4.2,0.9
		h-20.1l0-43.3h19.2c1.5,0,2.9,0.3,4.1,1c1.2,0.6,2.3,1.5,3.1,2.5c0.9,1,1.5,2.2,2,3.5c0.5,1.3,0.7,2.6,0.7,3.9
		c0,2.2-0.6,4.1-1.7,5.9c-1.1,1.8-2.6,3.1-4.5,3.9c1.2,0.4,2.3,0.9,3.3,1.6c1,0.7,1.8,1.6,2.6,2.5c0.7,1,1.3,2,1.6,3.1
		C169.1,88.1,169.3,90.1,169.3,91.3z M139.7,60.2v19.2h17.6c1.3,0,2.6-0.3,3.7-0.8c1.1-0.6,2-1.3,2.8-2.2c0.8-0.9,1.4-1.9,1.9-3.1
		c0.4-1.1,0.7-2.3,0.7-3.5c0-1.3-0.2-2.5-0.6-3.6c-0.4-1.2-1-2.2-1.8-3.1c-0.8-0.9-1.7-1.6-2.7-2.1c-1.1-0.5-2.2-0.8-3.5-0.8H139.7z
		 M168.1,91.3c0-1.3-0.2-3.4-0.7-4.6c-0.5-1.2-1.1-2.2-1.9-3.1c-0.8-0.9-1.8-1.6-2.9-2.2c-1.1-0.5-2.3-0.8-3.6-0.8h-19.3l0,20.5
		h18.8c1.3,0,2.6-0.3,3.8-0.8c1.2-0.6,2.2-1.3,3.1-2.2c0.9-0.9,1.6-2,2-3.1C167.9,93.8,168.1,92.6,168.1,91.3z"/>
	<path class="st0" d="M176.1,102.3l0-43.2h1.2l0,42h27.2v1.2H176.1z"/>
	<path class="st0" d="M209,102.3V59h1.2v43.3H209z"/>
	<path class="st0" d="M264.2,102.3l0-43.2h1.2l0,43.2H264.2z"/>
	<path class="st0" d="M339,101.4c3.3,0,5.9-0.6,8.1-1.8s3.8-2.8,5.1-4.8s2.1-4.2,2.6-6.6c0.5-2.5,0.8-5,0.8-7.5l0-21.6h1.2l0,21.6
		c0,2.9-0.3,5.7-0.9,8.3c-0.6,2.6-1.6,5-3,7c-1.4,2-3.2,3.6-5.5,4.8c-2.3,1.2-5.1,1.8-8.4,1.8c-3.4,0-6.3-0.6-8.5-1.9
		c-2.3-1.3-4.1-2.9-5.5-5s-2.3-4.4-2.9-7s-0.9-5.3-0.9-8l0-21.6h1.2l0,21.6c0,2.6,0.3,5.1,0.8,7.6c0.5,2.5,1.4,4.7,2.7,6.6
		c1.3,2,2.9,3.5,5.1,4.7C333.1,100.8,335.8,101.4,339,101.4z"/>
	<path class="st0" d="M392.8,65.1c-1.7-1.9-3.5-3.1-5.3-3.8c-1.9-0.7-4.1-1-6.6-1c-2.5,0-4.6,0.2-6.4,0.7c-1.8,0.5-3.2,1.2-4.4,2.1
		c-1.1,0.9-2,2-2.5,3.2c-0.5,1.3-0.8,2.7-0.8,4.2c0,1.5,0.3,2.8,0.8,3.8c0.5,1,1.3,1.9,2.4,2.6c1.1,0.7,2.5,1.3,4.2,1.8
		c1.7,0.5,3.8,1,6.2,1.5c2.4,0.5,4.6,1,6.5,1.6s3.6,1.3,5,2.1c1.4,0.8,2.4,1.9,3.1,3.1c0.7,1.2,1.1,2.8,1.1,4.7c0,3.5-1.4,6.2-4.1,8
		c-2.7,1.9-6.4,2.8-11.2,2.8c-3.5,0-6.6-0.5-9.3-1.6c-2.7-1.1-5.2-2.8-7.5-5l0.9-0.8c2.2,2.3,4.6,3.9,7.2,4.9c2.6,1,5.5,1.5,8.8,1.5
		c4.3,0,7.7-0.8,10.2-2.4c2.5-1.6,3.8-4,3.8-7.2c0-1.6-0.3-3-0.9-4.1c-0.6-1.1-1.4-2.1-2.6-2.9c-1.2-0.8-2.7-1.5-4.5-2.1
		c-1.8-0.6-4-1.1-6.5-1.6c-2.4-0.4-4.5-0.9-6.4-1.4s-3.4-1.1-4.7-1.9c-1.3-0.8-2.2-1.8-2.9-3c-0.7-1.2-1-2.7-1-4.4
		c0-1.9,0.4-3.5,1.1-4.9c0.7-1.4,1.7-2.6,3.1-3.6c1.3-1,2.9-1.7,4.8-2.2c1.8-0.5,3.9-0.8,6.3-0.8c2.8,0,5.2,0.4,7.2,1.2
		c2.1,0.8,3.9,2.1,5.6,4L392.8,65.1z"/>
	<rect x="226.1" y="62.3" class="st1" width="1" height="36.4"/>
	<rect x="328" y="59.1" class="st1" width="1" height="39.5"/>
	
		<rect x="110.4" y="58.6" transform="matrix(0.9446 -0.3283 0.3283 0.9446 -20.3917 40.9021)" class="st1" width="1" height="44.4"/>
	<rect x="264.6" y="76" transform="matrix(0.3212 -0.947 0.947 0.3212 118.4301 318.2357)" class="st1" width="33.3" height="1"/>
	<rect x="185.8" y="86.3" transform="matrix(0.4172 -0.9088 0.9088 0.4172 20.2596 226.001)" class="st1" width="1" height="21.7"/>
	<rect x="103.2" y="59" class="st1" width="27.9" height="1"/>
	<rect x="103.7" y="101.3" class="st1" width="27.9" height="1"/>
	<rect x="103.2" y="80.1" class="st1" width="1" height="22.2"/>
	<rect x="103.2" y="79.6" class="st1" width="24.5" height="1"/>
	<path class="st1" d="M293.4,102.2c-11.9,0-21.6-9.7-21.6-21.6s9.7-21.6,21.6-21.6c11.9,0,21.6,9.7,21.6,21.6
		S305.3,102.2,293.4,102.2z M293.4,60.1c-11.3,0-20.6,9.2-20.6,20.6s9.2,20.6,20.6,20.6c11.3,0,20.6-9.2,20.6-20.6
		S304.8,60.1,293.4,60.1z"/>
	<g>
		<path class="st1" d="M237.7,102.2c-12,0-21.8-9.8-21.8-21.8c0-12,9.8-21.8,21.8-21.8c8.1,0,15.4,4.4,19.2,11.5l-0.9,0.5
			c-3.6-6.8-10.7-11-18.4-11c-11.5,0-20.8,9.3-20.8,20.8c0,11.5,9.3,20.8,20.8,20.8c7.7,0,14.7-4.2,18.4-11l0.9,0.5
			C253.1,97.8,245.7,102.2,237.7,102.2z"/>
	</g>
	<path class="st0" d="M366.8,73.2c0,1.7,0.3,3.2,0.8,4.4c0.5,1.2,1.3,2.2,2.4,3c1.1,0.8,2.5,1.5,4.2,2.1c1.7,0.6,3.8,1.1,6.2,1.7
		c2.4,0.6,4.6,1.1,6.5,1.8s3.6,1.4,5,2.4c1.4,1,2.4,2.2,3.1,3.6c0.7,1.4,0.4-0.5-0.3,4.7c0-1.8-0.1-2.5-0.7-3.8
		c-0.6-1.3-1.4-2.4-2.6-3.3c-1.2-0.9-2.7-1.7-4.5-2.3c-1.8-0.6-4-1.2-6.5-1.8c-2.4-0.5-4.5-1-6.4-1.6s-3.4-1.3-4.7-2.2
		c-1.3-0.9-2.2-2-2.9-3.4c-0.7-1.4-1-6.4-1-8.4C365.6,67.8,366.8,71.4,366.8,73.2z"/>
</g>
</svg>
