<?xml version="1.0" encoding="utf-8"?>
<!-- Generator: Adobe Illustrator 21.0.0, SVG Export Plug-In . SVG Version: 6.00 Build 0)  -->
<svg version="1.1" id="Layer_1" xmlns="http://www.w3.org/2000/svg" xmlns:xlink="http://www.w3.org/1999/xlink" x="0px" y="0px"
	 viewBox="0 0 433.5 161.2" style="enable-background:new 0 0 433.5 161.2;" xml:space="preserve">
<style type="text/css">
	.st0{stroke:#333333;}
	.st1{stroke:#333333;stroke-miterlimit:10;}
</style>
<g>
	<path class="st0" d="M59.2,59h1.3l7.2,16.6L75,59h1.3l-7.9,18.1l10.4,23.7L97,59h1.3l-18.8,43.3h-1.3L67.8,78.6l-10.3,23.7h-1.3
		L37.3,59h1.3l18.2,41.8l10.3-23.7L59.2,59z"/>
	<path class="st0" d="M169.3,91.3c0,1.5-0.3,2.9-0.9,4.2c-0.6,1.3-1.3,2.5-2.3,3.5c-1,1-2.1,1.8-3.4,2.4c-1.3,0.6-2.7,0.9-4.2,0.9
		h-20.1l0-43.3h19.2c1.5,0,2.9,0.3,4.1,1c1.2,0.6,2.3,1.5,3.1,2.5c0.9,1,1.5,2.2,2,3.5c0.5,1.3,0.7,2.6,0.7,3.9
		c0,2.2-0.6,4.1-1.7,5.9c-1.1,1.8-2.6,3.1-4.5,3.9c1.2,0.4,2.3,0.9,3.3,1.6c1,0.7,1.8,1.6,2.6,2.5c0.7,1,1.3,2,1.6,3.1
		C169.1,88.1,169.3,90.1,169.3,91.3z M139.7,60.2v19.2h17.6c1.3,0,2.6-0.3,3.7-0.8c1.1-0.6,2-1.3,2.8-2.2c0.8-0.9,1.4-1.9,1.9-3.1
		c0.4-1.1,0.7-2.3,0.7-3.5c0-1.3-0.2-2.5-0.6-3.6c-0.4-1.2-1-2.2-1.8-3.1c-0.8-0.9-1.7-1.6-2.7-2.1c-1.1-0.5-2.2-0.8-3.5-0.8H139.7z
		 M168.1,91.3c0-1.3-0.2-3.4-0.7-4.6c-0.5-1.2-1.1-2.2-1.9-3.1c-0.8-0.9-1.8-1.6-2.9-2.2c-1.1-0.5-2.3-0.8-3.6-0.8h-19.3l0,20.5
		h18.8c1.3,0,2.6-0.3,3.8-0.8c1.2-0.6,2.2-1.3,3.1-2.2c0.9-0.9,1.6-2,2-3.1C167.9,93.8,168.1,92.6,168.1,91.3z"/>
	<path class="st0" d="M176.1,102.3l0-43.2h1.2l0,42h27.2v1.2H176.1z"/>
	<path class="st0" d="M209,102.3V59h1.2v43.3H209z"/>
	<path class="st0" d="M264.2,102.3l0-43.2h1.2l0,43.2H264.2z"/>
	<path class="st0" d="M339,101.4c3.3,0,5.9-0.6,8.1-1.8s3.8-2.8,5.1-4.8s2.1-4.2,2.6-6.6c0.5-2.5,0.8-5,0.8-7.5l0-21.6h1.2l0,21.6
		c0,2.9-0.3,5.7-0.9,8.3c-0.6,2.6-1.6,5-3,7c-1.4,2-3.2,3.6-5.5,4.8c-2.3,1.2-5.1,1.8-8.4,1.8c-3.4,0-6.3-0.6-8.5-1.9
		c-2.3-1.3-4.1-2.9-5.5-5s-2.3-4.4-2.9-7s-0.9-5.3-0.9-8l0-21.6h1.2l0,21.6c0,2.6,0.3,5.1,0.8,7.6c0.5,2.5,1.4,4.7,2.7,6.6
		c1.3,2,2.9,3.5,5.1,4.7C333.1,100.8,335.8,101.4,339,101.4z"/>
	
		<rect x="110.4" y="58.6" transform="matrix(0.9446 -0.3283 0.3283 0.9446 -20.3917 40.9021)" class="st1" width="1" height="44.4"/>
	<rect x="185.8" y="86.3" transform="matrix(0.4172 -0.9088 0.9088 0.4172 20.2596 226.001)" class="st1" width="1" height="21.7"/>
	<rect x="103.2" y="59" class="st1" width="27.9" height="1"/>
	<rect x="103.7" y="101.3" class="st1" width="27.9" height="1"/>
	<rect x="103.2" y="80.1" class="st1" width="1" height="22.2"/>
	<rect x="103.2" y="79.6" class="st1" width="24.5" height="1"/>
	<rect x="275.2" y="101.7" class="st1" width="37.1" height="1"/>
	<path class="st1" d="M293.7,98.4c-10.8,0-19.6-8.8-19.6-19.6s8.8-19.6,19.6-19.6c10.8,0,19.6,8.8,19.6,19.6S304.5,98.4,293.7,98.4z
		 M293.7,60.2c-10.3,0-18.6,8.4-18.6,18.6s8.4,18.6,18.6,18.6c10.3,0,18.6-8.4,18.6-18.6S304,60.2,293.7,60.2z"/>
	<g>
		<path class="st1" d="M237.7,102.2c-12,0-21.8-9.8-21.8-21.8c0-12,9.8-21.8,21.8-21.8c8.1,0,15.4,4.4,19.2,11.5l-0.9,0.5
			c-3.6-6.8-10.7-11-18.4-11c-11.5,0-20.8,9.3-20.8,20.8c0,11.5,9.3,20.8,20.8,20.8c7.7,0,14.7-4.2,18.4-11l0.9,0.5
			C253.1,97.8,245.7,102.2,237.7,102.2z"/>
	</g>
	<path class="st0" d="M395.1,87.1c-0.7-1.2-1.8-2.3-3.1-3.1c-1.4-0.8-3-1.6-5-2.1s-4.1-1.1-6.5-1.6c-2.4-0.5-4.5-1-6.2-1.5
		c-1.7-0.5-3.1-1.1-4.2-1.8c-1.1-0.7-1.9-1.6-2.4-2.6c-0.5-1-0.8-2.3-0.8-3.8c0-1.6,0.3-3,0.8-4.2c0.5-1.2,1.4-2.3,2.5-3.2
		c1.1-0.9,2.6-1.6,4.4-2.1c1.8-0.5,3.9-0.7,6.4-0.7c2.6,0,4.8,0.3,6.6,1c1.8,0.7,3.6,2,5.3,3.8l0.8-0.8c-1.7-1.9-3.6-3.2-5.6-4
		c-2.1-0.8-4.5-1.2-7.2-1.2c-2.3,0-4.4,0.3-6.3,0.8c-1.9,0.5-3.4,1.2-4.8,2.2c-1.3,1-2.3,2.2-3.1,3.6c-0.7,1.4-1.1,3.1-1.1,4.9
		c0,1.8,0.3,3.3,1,4.4c0.6,1.2,1.6,2.2,2.9,3c1.3,0.8,2.8,1.4,4.7,1.9c1.9,0.5,4,1,6.4,1.4c2.5,0.5,4.6,1,6.5,1.6
		c1.8,0.6,3.3,1.2,4.5,2.1c1.2,0.8,2.1,1.8,2.6,2.9c0.6,1.1,0.9,2.5,0.9,4.1c0,3.2-1.3,5.6-3.8,7.2c-2.5,1.6-5.9,2.4-10.2,2.4
		c-0.3,0-0.6,0-0.9,0v1c0.3,0,0.5,0,0.8,0c4.8,0,8.5-0.9,11.2-2.8c2.7-1.9,4.1-4.5,4.1-8C396.2,89.9,395.8,88.3,395.1,87.1z"/>
</g>
</svg>
